{
    "asset" : {
        "generator" : "Khronos glTF Blender I/O v1.8.19",
        "version" : "2.0"
    },
    "extensionsUsed" : [
        "KHR_materials_transmission"
    ],
    "scene" : 0,
    "scenes" : [
        {
            "name" : "Scene",
            "nodes" : [
                0,
                1
            ]
        }
    ],
    "nodes" : [
        {
            "mesh" : 0,
            "name" : "Lamp Stem",
            "rotation" : [
                0.08247821778059006,
                0,
                0,
                0.9965928792953491
            ],
            "scale" : [
                0.21172061562538147,
                1.8265780210494995,
                0.22893235087394714
            ],
            "translation" : [
                0,
                2.1271746158599854,
                -0.09817253798246384
            ]
        },
        {
            "mesh" : 1,
            "name" : "Lamp Head",
            "rotation" : [
                -0.25127243995666504,
                0,
                0,
                0.9679164290428162
            ],
            "scale" : [
                0.29406070709228516,
                0.7941833734512329,
                0.31913402676582336
            ],
            "translation" : [
                0,
                3.5086026191711426,
                0.44177642464637756
            ]
        }
    ],
    "materials" : [
        {
            "doubleSided" : true,
            "name" : "Body",
            "pbrMetallicRoughness" : {
                "baseColorFactor" : [
                    0,
                    0,
                    0,
                    1
                ],
                "metallicFactor" : 0,
                "roughnessFactor" : 0.24285714328289032
            }
        },
        {
            "doubleSided" : true,
            "emissiveFactor" : [
                1,
                1,
                1
            ],
            "extensions" : {
                "KHR_materials_transmission" : {
                    "transmissionFactor" : 1
                }
            },
            "name" : "Light",
            "pbrMetallicRoughness" : {
                "baseColorFactor" : [
                    0.9403966069221497,
                    0.9102188944816589,
                    1,
                    1
                ],
                "metallicFactor" : 0.3857142925262451,
                "roughnessFactor" : 0.08571427315473557
            }
        },
        {
            "doubleSided" : true,
            "extensions" : {
                "KHR_materials_transmission" : {
                    "transmissionFactor" : 0.9642857313156128
                }
            },
            "name" : "Glass",
            "pbrMetallicRoughness" : {
                "baseColorFactor" : [
                    0.800000011920929,
                    0.800000011920929,
                    0.800000011920929,
                    1
                ],
                "metallicFactor" : 0,
                "roughnessFactor" : 0.3500000238418579
            }
        }
    ],
    "meshes" : [
        {
            "name" : "Cylinder",
            "primitives" : [
                {
                    "attributes" : {
                        "POSITION" : 0,
                        "NORMAL" : 1,
                        "TEXCOORD_0" : 2
                    },
                    "indices" : 3,
                    "material" : 0
                }
            ]
        },
        {
            "name" : "Cylinder.001",
            "primitives" : [
                {
                    "attributes" : {
                        "POSITION" : 4,
                        "NORMAL" : 5,
                        "TEXCOORD_0" : 6
                    },
                    "indices" : 7,
                    "material" : 0
                },
                {
                    "attributes" : {
                        "POSITION" : 8,
                        "NORMAL" : 9,
                        "TEXCOORD_0" : 10
                    },
                    "indices" : 11,
                    "material" : 1
                },
                {
                    "attributes" : {
                        "POSITION" : 12,
                        "NORMAL" : 13,
                        "TEXCOORD_0" : 14
                    },
                    "indices" : 15,
                    "material" : 2
                }
            ]
        }
    ],
    "accessors" : [
        {
            "bufferView" : 0,
            "componentType" : 5126,
            "count" : 857,
            "max" : [
                1.4689979553222656,
                1,
                2.49037504196167
            ],
            "min" : [
                -1.4689979553222656,
                -1.1177194118499756,
                -3.620547294616699
            ],
            "type" : "VEC3"
        },
        {
            "bufferView" : 1,
            "componentType" : 5126,
            "count" : 857,
            "type" : "VEC3"
        },
        {
            "bufferView" : 2,
            "componentType" : 5126,
            "count" : 857,
            "type" : "VEC2"
        },
        {
            "bufferView" : 3,
            "componentType" : 5123,
            "count" : 4200,
            "type" : "SCALAR"
        },
        {
            "bufferView" : 4,
            "componentType" : 5126,
            "count" : 612,
            "max" : [
                1,
                1,
                1
            ],
            "min" : [
                -1,
                -1,
                -1
            ],
            "type" : "VEC3"
        },
        {
            "bufferView" : 5,
            "componentType" : 5126,
            "count" : 612,
            "type" : "VEC3"
        },
        {
            "bufferView" : 6,
            "componentType" : 5126,
            "count" : 612,
            "type" : "VEC2"
        },
        {
            "bufferView" : 7,
            "componentType" : 5123,
            "count" : 3162,
            "type" : "SCALAR"
        },
        {
            "bufferView" : 8,
            "componentType" : 5126,
            "count" : 128,
            "max" : [
                0.4729880690574646,
                -0.14880883693695068,
                0.47298792004585266
            ],
            "min" : [
                -0.4729880094528198,
                -0.7285774946212769,
                -0.4729883670806885
            ],
            "type" : "VEC3"
        },
        {
            "bufferView" : 9,
            "componentType" : 5126,
            "count" : 128,
            "type" : "VEC3"
        },
        {
            "bufferView" : 10,
            "componentType" : 5126,
            "count" : 128,
            "type" : "VEC2"
        },
        {
            "bufferView" : 11,
            "componentType" : 5123,
            "count" : 666,
            "type" : "SCALAR"
        },
        {
            "bufferView" : 12,
            "componentType" : 5126,
            "count" : 32,
            "max" : [
                0.673933207988739,
                -0.8118884563446045,
                0.6694865822792053
            ],
            "min" : [
                -0.6739333271980286,
                -0.8118884563446045,
                -0.6783801317214966
            ],
            "type" : "VEC3"
        },
        {
            "bufferView" : 13,
            "componentType" : 5126,
            "count" : 32,
            "type" : "VEC3"
        },
        {
            "bufferView" : 14,
            "componentType" : 5126,
            "count" : 32,
            "type" : "VEC2"
        },
        {
            "bufferView" : 15,
            "componentType" : 5123,
            "count" : 90,
            "type" : "SCALAR"
        }
    ],
    "bufferViews" : [
        {
            "buffer" : 0,
            "byteLength" : 10284,
            "byteOffset" : 0
        },
        {
            "buffer" : 0,
            "byteLength" : 10284,
            "byteOffset" : 10284
        },
        {
            "buffer" : 0,
            "byteLength" : 6856,
            "byteOffset" : 20568
        },
        {
            "buffer" : 0,
            "byteLength" : 8400,
            "byteOffset" : 27424
        },
        {
            "buffer" : 0,
            "byteLength" : 7344,
            "byteOffset" : 35824
        },
        {
            "buffer" : 0,
            "byteLength" : 7344,
            "byteOffset" : 43168
        },
        {
            "buffer" : 0,
            "byteLength" : 4896,
            "byteOffset" : 50512
        },
        {
            "buffer" : 0,
            "byteLength" : 6324,
            "byteOffset" : 55408
        },
        {
            "buffer" : 0,
            "byteLength" : 1536,
            "byteOffset" : 61732
        },
        {
            "buffer" : 0,
            "byteLength" : 1536,
            "byteOffset" : 63268
        },
        {
            "buffer" : 0,
            "byteLength" : 1024,
            "byteOffset" : 64804
        },
        {
            "buffer" : 0,
            "byteLength" : 1332,
            "byteOffset" : 65828
        },
        {
            "buffer" : 0,
            "byteLength" : 384,
            "byteOffset" : 67160
        },
        {
            "buffer" : 0,
            "byteLength" : 384,
            "byteOffset" : 67544
        },
        {
            "buffer" : 0,
            "byteLength" : 256,
            "byteOffset" : 67928
        },
        {
            "buffer" : 0,
            "byteLength" : 180,
            "byteOffset" : 68184
        }
    ],
    "buffers" : [
        {
            "byteLength" : 68364,
            "uri" : "Lamp_Product.bin"
        }
    ]
}
